<svg xmlns="http://www.w3.org/2000/svg" version="1.1" xmlns:xlink="http://www.w3.org/1999/xlink" xmlns:svgjs="http://svgjs.com/svgjs" width="1440" height="560" preserveAspectRatio="none" viewBox="0 0 1440 560"><g mask="url(&quot;#SvgjsMask1105&quot;)" fill="none"><rect width="1440" height="560" x="0" y="0" fill="rgba(47, 140, 255, 1)"></rect><path d="M0,635.883C115.44,614.795,202.538,531.937,304.333,473.551C412.622,411.44,549.754,386.913,617.213,281.872C687.438,172.525,690.682,31.973,670.356,-96.383C650.207,-223.622,607.102,-359.723,503.492,-436.278C403.844,-509.905,266.138,-474.832,142.763,-486.207C44.986,-495.222,-49.677,-516.759,-145.677,-496.129C-247.186,-474.315,-353.85,-443.989,-421.239,-365.005C-488.461,-286.217,-500.591,-176.249,-506.802,-72.867C-512.629,24.119,-472.949,112.486,-455.671,208.098C-431.609,341.251,-483.944,506.918,-385.294,599.53C-289.299,689.65,-129.526,659.544,0,635.883" fill="#117bff"></path><path d="M1440 1076.214C1538.758 1073.8400000000001 1630.094 1037.607 1718.099 992.73 1814.502 943.5699999999999 1925.9470000000001 900.828 1974.037 803.887 2022.449 706.297 1996.646 589.491 1970.609 483.71 1946.439 385.515 1910.021 284.176 1830.682 221.47199999999998 1755.965 162.421 1649.227 185.454 1558.123 157.709 1465.722 129.56900000000002 1385.641 32.081999999999994 1292.471 57.56099999999998 1199.492 82.988 1184.691 211.714 1115.443 278.769 1036.432 355.278 873.796 367.48900000000003 859.755 476.573 845.641 586.227 1003.145 638.326 1056.715 735.04 1104.1770000000001 820.727 1080.009 941.182 1153.175 1006.309 1228.199 1073.0900000000001 1339.588 1078.6280000000002 1440 1076.214" fill="#4d9dff"></path></g><defs><mask id="SvgjsMask1105"><rect width="1440" height="560" fill="#ffffff"></rect></mask></defs></svg>